{"title":"Desi Boyz (2011) Hindi Xvid 1CD S-CAM Rip AC3 [TDT]","uid":6845239,"size":726999543,"categoryP":"video","categoryS":"movies","magnet":"?xt=urn:btih:8c0578e7380ed9b896456c12274a629c64cebd74&amp;dn=Desi+Boyz+%282011%29+Hindi+Xvid+1CD+S-CAM+Rip+AC3+%5BTDT%5D&amp;tr=udp%3A%2F%2Ftracker.openbittorrent.com%3A80&amp;tr=udp%3A%2F%2Fopen.demonii.com%3A1337&amp;tr=udp%3A%2F%2Ftracker.coppersurfer.tk%3A6969&amp;tr=udp%3A%2F%2Fexodus.desync.com%3A6969","seeders":1,"leechers":0,"uploader":"amanrulz","files":3,"time":1322324033,"description":"mastitorrents.com\n &lt;a href=&quot;\nhttp://mastitorrents.com/forums/index.php&quot; rel=&quot;nofollow&quot; target=&quot;_NEW&quot;&gt;\nhttp://mastitorrents.com/forums/index.php&lt;/a&gt;\n\nGeneral\nComplete name : Desi Boyz (2011) - Xvid - 1CD - S-CAM Rip - AC3 - [TDT].avi\nIMDB : http://www.imdb.com/title/tt1985981/\nFormat : AVI\nFormat/Info : Audio Video Interleave\nFile size : 680 MiB\nDuration : 1h 53mn\nOverall bit rate : 837 Kbps\nWriting application : VirtualDubMod 1.5.10.3 | VirtualDub-Fr.org || (build 2550/release)\nWriting library : VirtualDubMod build 2550/release\nSource : S-cam @ Team ICTV .\nRipper : KINGFISHER [~TDT~].\n\n\nVideo\nID : 0\nFormat : MPEG-4 Visual\nFormat profile : Advanced Simple@L5\nFormat settings, BVOP : 2\nFormat settings, QPel : No\nFormat settings, GMC : No warppoints\nFormat settings, Matrix : Default (H.263)\nMuxing mode : Packed bitstream\nCodec ID : XVID\nCodec ID/Hint : XviD\nDuration : 1h 53mn\nBit rate : 700 Kbps\nWidth : 624 pixels\nHeight : 272 pixels\nDisplay aspect ratio : 2.25:1\nFrame rate : 23.976 fps\nColor space : YUV\nChroma subsampling : 4:2:0\nBit depth : 8 bits\nScan type : Progressive\nCompression mode : Lossy\nBits/(Pixel*Frame) : 0.172\nStream size : 569 MiB (84%)\nWriting library : XviD 1.2.1 (UTC 2008-12-04)\n\nAudio\nID : 1\nFormat : AC-3\nFormat/Info : Audio Coding 3\nMode extension : CM (complete main)\nCodec ID : 2000\nDuration : 1h 53mn\nBit rate mode : Constant\nBit rate : 128 Kbps\nChannel(s) : 2 channels\nChannel positions : Front: L R\nSampling rate : 48.0 KHz\nBit depth : 16 bits\nCompression mode : Lossy\nStream size : 104 MiB (15%)\nAlignment : Split accross interleaves\nInterleave, duration : 42 ms (1.00 video frame)\nInterleave, preload duration : 500 ms","torrent":{"xt":"urn:btih:8c0578e7380ed9b896456c12274a629c64cebd74","amp;dn":"Desi+Boyz+%282011%29+Hindi+Xvid+1CD+S-CAM+Rip+AC3+%5BTDT%5D","amp;tr":["udp%3A%2F%2Ftracker.openbittorrent.com%3A80","udp%3A%2F%2Fopen.demonii.com%3A1337","udp%3A%2F%2Ftracker.coppersurfer.tk%3A6969","udp%3A%2F%2Fexodus.desync.com%3A6969"],"infoHash":"8c0578e7380ed9b896456c12274a629c64cebd74","infoHashBuffer":{"type":"Buffer","data":[140,5,120,231,56,14,217,184,150,69,108,18,39,74,98,156,100,206,189,116]},"announce":[],"urlList":[]}}